<svg xmlns="http://www.w3.org/2000/svg" width="256" height="256"><path fill="#1976D2" fill-opacity=".016" fill-rule="evenodd" d="M0 128.004v128.004l128.25-.254 128.25-.254.254-127.75L257.008 0H0zm.485.496c0 70.4.119 99.053.265 63.672s.146-92.98 0-128S.485 58.1.485 128.5"/><path fill="#1976D2" fill-opacity=".079" fill-rule="evenodd" d="M101 11.892C58.352 32.415 41.493 40.588 39.194 41.858c-1.872 1.033-2.249 1.967-2 4.957.275 3.311.839 3.971 5.556 6.498L48 56.127l-.007 16.686C47.987 87.783 47.782 89.809 46 92.5c-2.375 3.586-2.491 5.65-.53 9.441 2.023 3.914 6.679 5.441 11.035 3.621 5.662-2.366 7.077-7.653 3.495-13.062-1.748-2.64-1.988-4.712-1.993-17.25-.004-7.838.231-14.25.522-14.25.29 0 3.215 1.356 6.5 3.014L71 67.029v12.533c0 12.189.071 12.599 2.581 14.925 4.019 3.725 50.429 26.696 53.953 26.705 3.211.008 50.071-23.367 54.216-27.044 2.108-1.871 2.25-2.789 2.25-14.567v-12.57l17-8.511c16.967-8.495 17-8.518 17-11.891 0-2.41-.645-3.793-2.25-4.823-1.9-1.218-32.556-16.024-74.426-35.944-6.796-3.233-11.447-4.831-14-4.81-2.768.024-10.037 3.023-26.324 10.86m18.896 4.482c-10.249 4.477-62.975 29.883-62.656 30.191.143.138 15.957 8.123 35.142 17.745 30.514 15.304 35.209 17.376 37.5 16.554 1.44-.517 17.362-8.494 35.383-17.728l32.765-16.789-13.265-6.327c-7.296-3.48-21.14-10.12-30.765-14.755s-19.572-9.258-22.104-10.274l-4.604-1.847zM82.204 79.609l.296 6.664 22.469 11.238 22.469 11.238 22.711-11.125L172.86 86.5l.07-6.734.07-6.734-22.078 10.984C138.78 90.057 128.201 95 127.414 95s-11.348-4.962-23.469-11.028L81.907 72.945zM69.5 108.49c-2.213.776-5.787 3.34-8 5.741-2.528 2.741-5.515 4.785-8.115 5.553-5.245 1.549-8.778 4.336-10.371 8.182-.856 2.066-1.952 3.034-3.435 3.034-5.34 0-6.368 6.617-1.579 10.158l3 2.218v12.197c0 11.907-.06 12.236-2.5 13.835-2.991 1.96-3.376 6.502-.75 8.84C39.588 179.884 125.015 212 127.529 212c2.487 0 87.871-32.134 89.721-33.766 2.627-2.318 2.24-6.867-.75-8.826-2.436-1.596-2.5-1.945-2.5-13.588v-11.949l3.053-2.569c2.404-2.022 2.989-3.233 2.75-5.686-.248-2.546-.92-3.315-3.676-4.206-2.305-.745-3.791-2.085-4.694-4.231-1.416-3.367-6.061-6.719-10.736-7.745-1.586-.349-4.979-2.794-7.54-5.434-12.369-12.75-31.577-7.865-64.749 16.467-.92.674-2.011.338-3.613-1.112-4.589-4.155-18.319-12.729-26.212-16.369-13.106-6.044-21.129-7.284-29.083-4.496m1.965 8.462c-1.119.453-2.59 1.494-3.269 2.312-1.057 1.274-.01 1.87 7.259 4.136 10.556 3.292 28.871 12.437 42.045 20.996 9.804 6.369 10.049 6.464 12.5 4.844 19.585-12.942 36.48-21.766 49.365-25.784 8.788-2.74 8.793-2.743 6.798-4.737-3.234-3.234-10.451-3.383-19.047-.394-8.468 2.945-22.587 11.204-32.616 19.079-5.837 4.583-7.267 5.297-8.605 4.296-.882-.66-4.932-3.711-9-6.779-19.198-14.483-36.827-21.456-45.43-17.969m-15.111 12.74c-1.18.231-2.914 1.269-3.853 2.307-1.633 1.805-1.561 1.95 1.645 3.305 1.845.779 15.054 6.483 29.354 12.675s30.093 12.977 35.096 15.078l9.096 3.819 36.404-15.745c20.022-8.66 37.274-16.075 38.337-16.477 1.896-.718 1.894-.771-.103-2.768-7.829-7.83-38.81 3.692-73.36 27.282-1.193.814-3.93-.518-12.415-6.04-25.196-16.402-48.929-25.641-60.201-23.436m-5.135 29.371.281 12.115L89 185.579c20.625 7.921 37.95 14.401 38.5 14.401s17.875-6.48 38.5-14.401l37.5-14.401.281-12.115.281-12.116-3.281 1.372c-1.805.755-18.79 8.042-37.745 16.194-18.956 8.151-34.974 14.82-35.597 14.82-.622 0-16.613-6.665-35.535-14.812s-35.88-15.433-37.685-16.193l-3.281-1.381zm-36.552 67.604c-.367.366-.667 6.891-.667 14.5V255h8.5c8.4 0 8.5-.029 8.5-2.5 0-2.333-.333-2.5-5-2.5h-5v-3.5c0-3.481.024-3.5 4.5-3.5 4.133 0 4.5-.204 4.5-2.5 0-2.321-.345-2.5-4.827-2.5-4.794 0-4.824-.02-4.386-3 .42-2.864.662-3 5.326-3 4.763 0 4.887-.076 4.887-3v-3h-7.833c-4.309 0-8.134.3-8.5.667m21.083-.112c-.413.428-.75 7.003-.75 14.612V255l7.25-.002c12.007-.002 17.913-4.474 18.052-13.667.085-5.664-2.21-10.255-6.351-12.701-2.989-1.766-16.964-3.359-18.201-2.075m28.917.112c-1.122 1.121-.74 20.321.45 22.649 2.799 5.473 10.592 7.437 16.792 4.231 4.168-2.155 5.207-5.798 4.88-17.097l-.289-9.95-2.75-.316-2.75-.317v9.632C81 247.032 80.198 249 75.5 249c-4.694 0-5.5-1.969-5.5-13.434 0-9.355-.052-9.566-2.333-9.566-1.284 0-2.634.3-3 .667m33.317 1.157c-2.151 1.126-4.366 3.517-5.791 6.25-5.181 9.942 1.429 20.913 12.607 20.922 6.528.006 13.2-4.401 13.2-8.719 0-1.959-5.104-1.524-7.436.634-5.837 5.402-13.564 1.413-13.564-7.004 0-6.436 8.788-10.513 12.732-5.907 1.972 2.303 8.268 2.826 8.268.687 0-1.512-4.473-5.915-7.684-7.565-3.229-1.658-8.383-1.365-12.332.702m32.49-.574c-4.306 11.619-9.474 26.315-9.474 26.941 0 .445 1.361.809 3.025.809 2.306 0 3.25-.594 3.975-2.5.852-2.242 1.51-2.5 6.367-2.5 4.943 0 5.471.218 6.044 2.5.523 2.086 1.222 2.5 4.215 2.5 3.018 0 3.476-.278 2.885-1.75-.387-.963-2.535-6.925-4.773-13.25-2.239-6.325-4.5-12.062-5.026-12.75-.527-.687-2.266-1.25-3.866-1.25s-3.117.563-3.372 1.25m18.901.215c-1.097 2.858.417 4.535 4.094 4.535H157v23h6v-22.879l3.75-.311c3.251-.269 3.75-.643 3.75-2.81 0-2.486-.058-2.502-10.268-2.785-8.488-.236-10.37-.019-10.857 1.25m25.292-.798c-.367.366-.667 6.891-.667 14.5V255h6v-29h-2.333c-1.284 0-2.634.3-3 .667m16.744 1.224c-5.309 3.238-7.411 6.783-7.407 12.494.006 9.114 5.388 14.615 14.298 14.615 15.083 0 20.046-20.406 6.627-27.248-4.455-2.272-9.652-2.218-13.518.139m25.256-1.224c-.367.366-.667 6.891-.667 14.5V255h7l.007-8.75.007-8.75 5.743 8.731c5.271 8.013 6.013 8.732 9.02 8.75l3.278.019-.278-14.25-.277-14.25h-6v8.752c0 4.813-.101 8.75-.224 8.75-.124-.001-2.948-4.052-6.276-9.002-4.697-6.985-6.568-9-8.359-9-1.269 0-2.608.3-2.974.667M42 240.927v8.927l3.104-.392c5.134-.65 6.538-1.38 7.744-4.028 3.074-6.747-.561-13.434-7.303-13.434H42zm151.048-7.167c-1.326 1.073-2.386 3.345-2.718 5.82-.756 5.633 2.727 9.82 8.169 9.82 4.914 0 7.501-3.047 7.501-8.836 0-7.343-7.452-11.258-12.952-6.804m-59.791 3.825c-2.589 6.723-2.547 7.111.73 6.63 3.3-.484 3.455-1.07 1.626-6.13l-1.234-3.414z"/><path fill="#1976D2" fill-opacity=".316" fill-rule="evenodd" d="M104 10.794a19068 19068 0 0 1-42 20.167c-11.825 5.657-22.287 10.974-23.25 11.817-3.83 3.353-1.174 8.147 6.209 11.205L48 55.243l-.032 17.628c-.025 13.915-.341 18.038-1.5 19.57-2.296 3.036-1.865 8.837.846 11.385 5.204 4.889 14.187.867 13.985-6.262-.058-2.03-.823-4.486-1.702-5.457C58.287 90.66 58 87.706 58 75.671c0-8.069.195-14.671.434-14.671s3.164 1.184 6.5 2.631L71 66.261v12.235c0 10.763.243 12.543 2.021 14.804 2.621 3.332 50.765 27.709 54.657 27.676 1.552-.014 7.547-2.488 13.322-5.497s16.857-8.64 24.627-12.511c7.77-3.872 14.97-7.969 16-9.105 1.582-1.745 1.924-4.05 2.199-14.807l.327-12.74 15.173-7.356c8.346-4.046 15.961-8.012 16.924-8.813 2.243-1.868 2.243-5.403 0-7.376-.963-.846-12.775-6.809-26.25-13.25a98076 98076 0 0 1-41.197-19.704c-9.184-4.396-18.409-8.198-20.5-8.448-3.248-.389-6.798.988-24.303 9.425m16 5.103c-10.1 4.391-61.393 29.15-62.385 30.113-.5.486 14.593 8.594 34.722 18.654l35.606 17.794 33.279-16.878c18.303-9.284 34.152-17.478 35.221-18.209 1.767-1.209.586-1.978-13-8.461a76685 76685 0 0 1-34.592-16.52c-10.807-5.165-20.257-9.374-21-9.354s-4.276 1.307-7.851 2.861M81 79.006v7l23.264 11.619 23.264 11.619 23.236-11.626L174 85.992v-14l-23.236 11.626-23.236 11.626-23.264-11.619L81 72.006zm-8.083 28.94c-4.832.924-10.518 4.57-12.586 8.071-1.26 2.133-2.942 3.17-6.544 4.034C48.478 121.325 43 125.908 43 129.077c0 1.351-.698 1.923-2.345 1.923-1.29 0-3.172.914-4.182 2.03-2.291 2.531-1.09 6.965 2.291 8.457 2.147.948 2.236 1.498 2.236 13.798 0 12.62-.04 12.845-2.651 15.092-3.525 3.032-2.677 7.054 1.927 9.142 1.773.804 22.119 8.473 45.213 17.041l41.99 15.579 41.01-15.243c51.745-19.233 49.293-18.18 50.131-21.518.549-2.186.162-3.169-1.969-5.001-2.611-2.247-2.651-2.472-2.651-15.092 0-12.3.089-12.85 2.236-13.798 3.381-1.492 4.582-5.926 2.291-8.457-1.01-1.116-2.802-2.03-3.981-2.03-1.531 0-2.496-.973-3.375-3.405-1.446-3.997-4.31-6.098-10.407-7.633-3.13-.788-4.914-1.947-6.106-3.964-3.756-6.358-12.908-9.472-23.137-7.871-7.679 1.202-25.271 9.801-36.021 17.607l-8 5.809-7.996-5.724c-18.342-13.131-35.986-19.899-46.587-17.873m-4.611 10.481c-2.166 1.873-2.464 2.538-1.306 2.916.825.27 4.875 1.474 9 2.676 9.995 2.912 23.47 9.567 38.736 19.129 6.895 4.318 12.639 7.852 12.764 7.852s5.869-3.534 12.764-7.852c15.266-9.562 28.741-16.217 38.736-19.129 4.125-1.202 8.175-2.408 9-2.679 1.136-.374.773-1.08-1.5-2.912-8.837-7.122-30.832 1.244-54.673 20.797-2.57 2.108-4.937 3.407-5.258 2.886-1.043-1.687-14.89-11.742-22.701-16.484-15.762-9.569-29.587-12.368-35.562-7.2m-14.618 12.177c-1.546.839-2.636 2.058-2.42 2.71.368 1.117 74.091 33.655 76.232 33.646 2.183-.01 75.882-32.538 76.242-33.651.625-1.931-5.248-4.309-10.641-4.309-10.65 0-31.914 9.195-54.683 23.647l-10.958 6.954-11.48-7.3c-13.878-8.826-32.997-18.415-42.335-21.232-8.033-2.424-16-2.61-19.957-.465m-2.683 28.646.005 12.25 37.745 14.409c20.76 7.925 38.201 14.413 38.759 14.417s17.991-6.48 38.742-14.409l37.729-14.417.007-12.317c.007-11.353-.131-12.274-1.77-11.753-.978.31-17.943 7.54-37.699 16.067S128.113 179 127.515 179s-17.819-7.2-38.267-16c-20.447-8.8-37.418-16-37.713-16-.294 0-.533 5.512-.53 12.25m50.114 67.755c-1.86.438-4.745 2.16-6.412 3.827-4.147 4.146-4.995 12.348-1.81 17.501 5.062 8.19 16.961 8.727 23.036 1.038l2.268-2.871-3.111-.314c-2.006-.203-4.044.419-5.736 1.75-3.485 2.741-6.903 2.606-9.899-.391-3.217-3.216-3.463-10.537-.455-13.545 2.623-2.623 9.046-2.711 11.36-.155 1.974 2.181 7.294 2.23 6.855.063-.442-2.177-6.022-6.908-8.149-6.908-1.046 0-2.502-.178-3.234-.396-.733-.217-2.854-.037-4.713.401m92.622.413c-4.902 1.764-6.756 3.376-8.396 7.3-3.045 7.284-.246 15.053 6.675 18.53 6.659 3.346 14.667 1.113 18.32-5.108 6.692-11.396-4.319-25.142-16.599-20.722M14.222 240.75l.278 13.75h8c7.535 0 8.019-.131 8.32-2.25.298-2.102-.047-2.25-5.25-2.25H20v-3.5c0-3.468.04-3.5 4.383-3.5 3.499 0 4.486-.392 4.892-1.942.696-2.664.059-3.058-4.942-3.058-4.285 0-4.333-.038-4.333-3.5V231h5.5c4.833 0 5.5-.242 5.5-2 0-1.844-.667-2-8.528-2h-8.528zm21.778.382v14.131l7.322-.47c4.629-.297 8.485-1.157 10.484-2.337 8.485-5.012 8.057-19.373-.712-23.907C51.221 227.58 47.458 227 43.05 227H36zm28.162-3.152c.316 10.267.507 11.148 2.935 13.574 2.989 2.987 9.004 4.155 13.153 2.556 5.012-1.933 6.742-6.385 6.746-17.36L87 227h-6v9.845C81 247.441 79.88 250 75.243 250 70.974 250 70 247.571 70 236.929V227h-6.177zm66.336-9.73c-.242.688-2.478 6.84-4.969 13.673-2.491 6.832-4.529 12.57-4.529 12.75s1.306.327 2.902.327c2.326 0 3.11-.596 3.948-3 .986-2.828 1.352-3 6.379-3 5.007 0 5.402.183 6.465 3 .856 2.268 1.763 3 3.719 3 1.423 0 2.597-.338 2.61-.75s-2.099-6.713-4.693-14L137.613 227h-3.338c-1.836 0-3.536.563-3.777 1.25M150 229c0 1.616.667 2 3.468 2h3.469l.281 11.75.282 11.75 2.75.316 2.75.317V231h3.5c2.833 0 3.5-.381 3.5-2 0-1.867-.667-2-10-2s-10 .133-10 2m24.222 11.75.278 13.75 2.75.316 2.75.317V227h-6.056zM217 241v14h2.5c2.496 0 2.5-.017 2.5-9.742v-9.743l6.556 9.804c5.697 8.519 6.884 9.762 9.066 9.492l2.51-.311.184-13.75.184-13.75h-5.425l-.287 9.192-.288 9.191-6-9.176c-5.145-7.868-6.392-9.178-8.75-9.191L217 227zm-21-9.269c-6.251 2.182-8.252 11.108-3.545 15.814 3.178 3.179 7.573 3.195 11.239.042 2.311-1.988 2.806-3.218 2.806-6.973 0-3.256-.571-5.103-2-6.465-2.205-2.101-6.173-3.23-8.5-2.418M41 241.13v9.13l4.711-.531c5.905-.665 8.289-3.302 8.289-9.165 0-5.641-3.008-8.564-8.814-8.564H41zm92.624-6.13c-.325.825-1.253 3.412-2.063 5.75l-1.472 4.25h4.023c4.434 0 4.362.428 1.353-8-.855-2.394-1.437-3.026-1.841-2"/><path fill="#1976D2" fill-opacity=".26" fill-rule="evenodd" d="M124.303 1.875c-1.208.344-20.942 9.625-43.853 20.625-43.171 20.728-45.007 21.864-42.536 26.329.509.919 3.098 2.796 5.755 4.171l4.831 2.5.275 16.842c.251 15.441.106 17.115-1.75 20.118-4.192 6.782-1.335 12.995 5.975 12.995 3.21 0 4.664-.557 6.107-2.339 2.371-2.928 2.439-7.856.143-10.389-1.474-1.626-1.801-4.362-2.07-17.329-.177-8.469.048-15.369.5-15.333.451.036 3.745 1.512 7.32 3.281l6.5 3.216.012 12.817c.012 12.396.093 12.883 2.467 14.805 1.35 1.093 13.668 7.597 27.372 14.452 27.302 13.657 26.941 13.566 35.149 8.888 2.2-1.254 12.626-6.62 23.169-11.926 10.542-5.305 20.175-10.461 21.406-11.457 2.097-1.699 2.243-2.62 2.331-14.727L183.5 66.5l16.481-8.234c23.383-11.682 23.386-12.306.12-23.507C153.547 12.347 131.854 2.268 129 1.725c-1.375-.262-3.489-.194-4.697.15M118 16.324c-12.784 5.741-60.451 28.799-61.381 29.693C55.688 46.91 124.855 82 127.547 82c1.51 0 66.077-31.952 69.81-34.547 2.263-1.574 5.733.314-34.814-18.943-17.026-8.087-32.326-14.894-34-15.128-2.022-.283-5.56.705-10.543 2.942M81 79.26v7.26l23.25 11.612 23.25 11.613 23.25-11.613L174 86.52v-7.26c0-3.993-.229-7.26-.508-7.26-.28 0-10.743 5.121-23.251 11.379l-22.742 11.38L105 83.433c-12.375-6.229-22.838-11.35-23.25-11.379-.412-.03-.75 3.213-.75 7.206m-12.615 30.653c-2.263 1.027-5.559 3.665-7.324 5.862-2.416 3.005-4.161 4.145-7.058 4.608-4.482.717-9.529 4.591-10.375 7.964q-.591 2.353-3.859 3.285c-2.69.766-3.324 1.488-3.577 4.077-.248 2.536.285 3.584 2.75 5.406L42 143.376v12.197c0 11.907-.06 12.236-2.5 13.835-2.828 1.853-3.431 6.575-1.087 8.52 1.148.952 36.807 14.496 81.61 30.996l7.523 2.77 14.477-5.394c7.962-2.967 27.302-10.139 42.977-15.939s29.512-11.189 30.75-11.976c3.181-2.023 3.047-6.816-.25-8.977-2.44-1.599-2.5-1.928-2.5-13.835v-12.197l3.058-2.261c2.465-1.822 2.998-2.87 2.75-5.406-.253-2.589-.887-3.311-3.577-4.077q-3.267-.932-3.859-3.285c-.846-3.373-5.893-7.247-10.375-7.964-2.897-.463-4.642-1.603-7.058-4.608-10.302-12.82-30.8-9.356-57.351 9.694-4.003 2.872-7.734 5.503-8.291 5.847s-3.439-1.199-6.405-3.43c-9.077-6.829-23.088-14.63-31.116-17.325-9.089-3.051-16.62-3.269-22.391-.648m3.115 6.032c-2.083.853-6.126 4.854-5.411 5.354.226.158 4.011 1.307 8.411 2.553 10.198 2.888 26.813 11.07 41.485 20.429l11.485 7.327 12.515-7.896c15.364-9.694 29.935-16.831 40.515-19.846 4.4-1.254 8.201-2.425 8.447-2.603s-.777-1.547-2.273-3.043c-2.394-2.394-3.465-2.713-8.947-2.665-10.2.089-23.684 6.44-40.329 18.993-4.616 3.482-8.758 6.557-9.204 6.832-.445.275-5.174-2.769-10.508-6.765-19.311-14.47-37.995-22.022-46.186-18.67m-15.081 13.13c-1.695.492-3.87 1.766-4.833 2.83-1.672 1.848-1.666 1.982.149 2.953 1.557.834 62.255 27.171 72.796 31.587 2.882 1.208 4.905.46 41.5-15.342 21.158-9.136 38.404-17.06 38.324-17.607-.079-.548-1.296-1.856-2.705-2.908-8.15-6.085-32.662 2.29-62.931 21.502-5.988 3.801-11.099 6.91-11.358 6.91s-3.034-1.737-6.166-3.861c-8.366-5.671-27.616-16.403-35.971-20.054-7.209-3.151-21.072-7.169-24.134-6.995-.874.05-2.977.493-4.671.985M50 158.358c0 10.952.225 12.691 1.75 13.501.962.511 18.4 7.303 38.749 15.093l36.999 14.165 34.501-13.173c18.976-7.245 36.413-13.996 38.751-15.002l4.25-1.83v-12.556c0-6.906-.15-12.556-.332-12.556s-17.617 7.433-38.742 16.519l-38.409 16.518-37.009-15.954c-20.354-8.775-37.796-16.256-38.758-16.626-1.609-.617-1.75.339-1.75 11.901M15 240.5V254h7.5c6.476 0 7.5-.239 7.502-1.75.001-1.421-.891-1.75-4.75-1.75H20.5l-.307-4.25-.308-4.25h4.558c3.384 0 4.557-.386 4.557-1.5 0-1.111-1.167-1.5-4.5-1.5H20v-8h5c4.333 0 5-.267 5-2 0-1.822-.667-2-7.5-2H15zm21 0V254l7.25-.004c8.63-.004 13.097-2.188 15.31-7.486 1.945-4.655 1.812-7.861-.516-12.424C55.607 229.309 50.372 227 41.98 227H36zm29-2.723c0 12.167.942 14.561 6.311 16.043 4.695 1.297 9.263.333 12.162-2.566 2.392-2.392 2.527-3.105 2.527-13.39 0-10.601-.055-10.864-2.25-10.86-2.181.003-2.25.306-2.25 9.847 0 11.559-.914 13.412-6.391 12.95-4.875-.412-6.076-3.181-6.094-14.051-.014-8.078-.169-8.75-2.015-8.75-1.876 0-2 .667-2 10.777m32.42-8.891c-5.589 3.408-7.784 10.956-5.058 17.396 2.55 6.026 8.34 9.002 15.474 7.955 3.225-.473 9.164-5.099 9.164-7.138 0-1.789-3.987-1.255-6.727.901-6.397 5.031-15.045-.211-13.94-8.45.589-4.386 4.327-8.55 7.676-8.55 2.426 0 6.991 2.064 6.991 3.161 0 .461 1.35.839 3 .839 3.245 0 3.61-.646 1.718-3.046-4.057-5.149-12.551-6.573-18.298-3.068m29.2 11.199c-2.541 7.197-4.62 13.272-4.62 13.5s1.116.415 2.481.415c1.812 0 2.65-.674 3.108-2.5.581-2.314 1.067-2.5 6.544-2.5 5.391 0 6.001.222 6.867 2.5.663 1.745 1.704 2.5 3.445 2.5h2.495l-3.875-10.75c-6.207-17.219-5.675-16.25-8.92-16.25-2.823 0-3.035.369-7.525 13.085M150 229c0 1.667.667 2 4 2h4v11.5c0 10.833.116 11.5 2 11.5s2-.667 2-11.5V231h4c3.333 0 4-.333 4-2 0-1.867-.667-2-10-2s-10 .133-10 2m25 11.5c0 12.833.099 13.5 2 13.5s2-.667 2-13.5-.099-13.5-2-13.5-2 .667-2 13.5m17.418-12.531c-3.146 1.273-7.26 6.671-7.97 10.458-.786 4.189 2.377 11.874 5.597 13.597 4.299 2.301 8.293 2.962 11.947 1.978 11.267-3.034 13.63-18.993 3.709-25.042-3.32-2.025-9.574-2.492-13.283-.991M217 240.5V254h2.462c2.419 0 2.468-.165 2.75-9.25l.288-9.25 6 9.238c5.157 7.94 6.386 9.239 8.75 9.25L240 254v-27h-2.464c-2.426 0-2.468.145-2.75 9.545l-.286 9.546-6.217-9.546c-5.153-7.912-6.65-9.545-8.75-9.545H217zm-176-.13V250h4.411c3.735 0 4.824-.491 7.105-3.201 2.234-2.656 2.603-3.874 2.164-7.147-.704-5.252-3.408-7.754-9.068-8.392L41 230.74zm152.299-7.867c-2.642 1.851-4.682 7.679-3.756 10.731 1.267 4.177 4.527 6.766 8.521 6.766 5.311 0 8.022-2.579 8.66-8.242.474-4.205.226-4.961-2.522-7.71-3.407-3.407-7.431-3.977-10.903-1.545m-61.212 5.601c-.676 2.257-1.471 4.732-1.765 5.5-.405 1.055.467 1.396 3.571 1.396 2.259 0 4.107-.37 4.107-.822 0-1.808-3.237-10.178-3.936-10.178-.411 0-1.301 1.847-1.977 4.104"/></svg>